<svg width="112" height="41" viewBox="0 0 112 41" fill="none" xmlns="http://www.w3.org/2000/svg">
<path d="M58.856 30V15.624H53.264V13.08H67.544V15.624H61.952V30H58.856ZM73.4724 30.24C71.4404 30.24 69.8484 29.68 68.6964 28.56C67.5444 27.44 66.9684 25.904 66.9684 23.952C66.9684 22.688 67.2164 21.584 67.7124 20.64C68.2084 19.696 68.8964 18.96 69.7764 18.432C70.6724 17.904 71.7124 17.64 72.8964 17.64C74.0644 17.64 75.0404 17.888 75.8244 18.384C76.6084 18.88 77.2004 19.576 77.6004 20.472C78.0164 21.368 78.2244 22.416 78.2244 23.616V24.408H69.3924V22.824H76.0884L75.6804 23.16C75.6804 22.04 75.4404 21.184 74.9604 20.592C74.4964 20 73.8164 19.704 72.9204 19.704C71.9284 19.704 71.1604 20.056 70.6164 20.76C70.0884 21.464 69.8244 22.448 69.8244 23.712V24.024C69.8244 25.336 70.1444 26.32 70.7844 26.976C71.4404 27.616 72.3604 27.936 73.5444 27.936C74.2324 27.936 74.8724 27.848 75.4644 27.672C76.0724 27.48 76.6484 27.176 77.1924 26.76L78.0804 28.776C77.5044 29.24 76.8164 29.6 76.0164 29.856C75.2164 30.112 74.3684 30.24 73.4724 30.24ZM80.7648 30V12.336H83.7648V30H80.7648ZM92.5906 30.24C91.3426 30.24 90.2466 29.984 89.3026 29.472C88.3746 28.96 87.6546 28.232 87.1426 27.288C86.6306 26.328 86.3746 25.192 86.3746 23.88C86.3746 22.568 86.6306 21.448 87.1426 20.52C87.6706 19.592 88.3986 18.88 89.3266 18.384C90.2546 17.888 91.3426 17.64 92.5906 17.64C93.3906 17.64 94.1666 17.768 94.9186 18.024C95.6866 18.264 96.3106 18.616 96.7906 19.08L95.8786 21.168C95.4466 20.768 94.9586 20.472 94.4146 20.28C93.8866 20.072 93.3666 19.968 92.8546 19.968C91.7826 19.968 90.9426 20.304 90.3346 20.976C89.7426 21.648 89.4466 22.624 89.4466 23.904C89.4466 25.184 89.7426 26.168 90.3346 26.856C90.9426 27.544 91.7826 27.888 92.8546 27.888C93.3506 27.888 93.8626 27.792 94.3906 27.6C94.9346 27.408 95.4306 27.112 95.8786 26.712L96.7906 28.776C96.2946 29.24 95.6626 29.6 94.8946 29.856C94.1426 30.112 93.3746 30.24 92.5906 30.24ZM104.354 30.24C103.106 30.24 102.026 29.984 101.114 29.472C100.202 28.96 99.49 28.232 98.978 27.288C98.482 26.344 98.234 25.224 98.234 23.928C98.234 22.632 98.482 21.52 98.978 20.592C99.49 19.648 100.202 18.92 101.114 18.408C102.026 17.896 103.106 17.64 104.354 17.64C105.602 17.64 106.682 17.896 107.594 18.408C108.522 18.92 109.234 19.648 109.73 20.592C110.242 21.52 110.498 22.632 110.498 23.928C110.498 25.224 110.242 26.344 109.73 27.288C109.234 28.232 108.522 28.96 107.594 29.472C106.682 29.984 105.602 30.24 104.354 30.24ZM104.354 27.936C105.298 27.936 106.05 27.608 106.61 26.952C107.17 26.28 107.45 25.272 107.45 23.928C107.45 22.584 107.17 21.584 106.61 20.928C106.05 20.272 105.298 19.944 104.354 19.944C103.41 19.944 102.658 20.272 102.098 20.928C101.538 21.584 101.258 22.584 101.258 23.928C101.258 25.272 101.538 26.28 102.098 26.952C102.658 27.608 103.41 27.936 104.354 27.936Z" fill="#233348"/>
<circle cx="20.5" cy="20.5" r="20.5" fill="#458FF6"/>
<path d="M19.344 15.244H13.312V12.488H28.782V15.244H22.724V31H19.344V15.244Z" fill="white"/>
</svg>
